<svg xmlns="http://www.w3.org/2000/svg" width="256" height="256" viewBox="0 0 100 100"><rect width="100" height="100" rx="20" fill="#00c853"></rect><path d="M49.28 72.41L49.28 72.41Q55.31 72.41 58.42 69.67Q61.52 66.92 61.52 62.60L61.52 62.60Q61.52 58.82 59.14 56.48Q56.75 54.14 51.62 52.61L51.62 52.61L43.79 50.27Q38.03 48.56 34.75 45.23Q31.46 41.90 31.46 36.23L31.46 36.23Q31.46 32.81 32.77 30.06Q34.07 27.32 36.50 25.43Q38.93 23.54 42.31 22.51Q45.68 21.47 49.91 21.47L49.91 21.47Q53.51 21.47 56.62 22.05Q59.72 22.64 62.02 23.68Q64.31 24.71 65.57 25.97Q66.83 27.23 66.83 28.58L66.83 28.58Q66.83 29.84 66.20 30.74Q65.57 31.64 64.58 32.18L64.58 32.18Q62.24 30.38 58.50 29.03Q54.77 27.68 50.18 27.68L50.18 27.68Q44.87 27.68 41.86 29.93Q38.84 32.18 38.84 36.23L38.84 36.23Q38.84 39.38 41 41.36Q43.16 43.34 48.20 44.78L48.20 44.78L53.69 46.40Q60.80 48.47 64.89 52.20Q68.99 55.94 68.99 62.60L68.99 62.60Q68.99 69.71 63.86 74.12Q58.73 78.53 49.28 78.53L49.28 78.53Q45.14 78.53 41.77 77.81Q38.39 77.09 36.01 75.92Q33.62 74.75 32.32 73.36Q31.01 71.96 31.01 70.61L31.01 70.61Q31.01 69.08 31.96 68.05Q32.90 67.01 34.16 66.56L34.16 66.56Q35.15 67.55 36.59 68.58Q38.03 69.62 39.92 70.47Q41.81 71.33 44.15 71.87Q46.49 72.41 49.28 72.41Z" fill="#ffffff"></path></svg>